arm26_states
nRows=12
nColumns=17

# SIMM Motion File Header:
name arm26_states
datacolumns 17
datarows 12
otherdata 1
range 0.27000000000000007000 0.31000000000000011000
endheader
time	r_shoulder_elev	r_elbow_flex	r_shoulder_elev_u	r_elbow_flex_u	TRIlong.activation	TRIlong.fiber_length	TRIlat.activation	TRIlat.fiber_length	TRImed.activation	TRImed.fiber_length	BIClong.activation	BIClong.fiber_length	BICshort.activation	BICshort.fiber_length	BRA.activation	BRA.fiber_length
      0.27000000000000007000	     -0.00415639999871402280	     15.26516517746529700000	      0.02164922368138476000	    106.95279001916502000000	      0.00004389753862563890	      0.14239784100209943000	      0.00102613333323744590	      0.07652343398396943600	      0.00109963999941615830	      0.07152962625669238800	      0.00000007889316993055	      0.14516003237062178000	      0.00000007889316993055	      0.14438588359392893000	      0.00000007889316993055	      0.08969047664354568000
      0.27524288000000008000	     -0.00403818248769563950	     15.83017187502838800000	      0.02302143925126848300	    108.57708289968568000000	      0.00003850492635061403	      0.14262155248919972000	      0.00090007753644622229	      0.07675207942595124700	      0.00096455424416389316	      0.07175753005936613700	      0.00000006920150406720	      0.14499458597516612000	      0.00000006920150406720	      0.14421384488265870000	      0.00000006920150406720	      0.08955599997540331100
      0.28000000000000008000	     -0.00392262731671591360	     16.35013274974689400000	      0.02444135654726581700	    110.02527660941993000000	      0.00003418743417493851	      0.14282794641763061000	      0.00079915336675109177	      0.07696263274599432500	      0.00085640041043695699	      0.07196743297382224300	      0.00000006144205662314	      0.14483908142263810000	      0.00000006144205662314	      0.14405260345250984000	      0.00000006144205662314	      0.08943353273095593100
      0.28524288000000009000	     -0.00379492078326102530	     16.93111540841534400000	      0.04800660518690553400	    111.52913909186933000000	      0.00002998766391548026	      0.14305858625630105000	      0.00070098102292285821	      0.07719800544222069100	      0.00075119552856320814	      0.07220209355449273800	      0.00000005389418038401	      0.14466577622324647000	      0.00000005389418038401	      0.14386967506594148000	      0.00000005389418038401	      0.08928238269350163800
      0.28762144000000012000	     -0.00370123482408432970	     17.19728839546801800000	      0.03208465894943230600	    112.27618869425828000000	      0.00002825645971593762	      0.14316478410715683000	      0.00066051300600416477	      0.07730597677550335400	      0.00070782860083613884	      0.07230975389849066100	      0.00000005078283994500	      0.14458185094915271000	      0.00000005078283994500	      0.14378455864618780000	      0.00000005078283994500	      0.08923200118022592300
      0.29000000000000009000	     -0.00362258350423152370	     17.46516465699491500000	      0.03416649541008497800	    112.96468855315399000000	      0.00002662519887940458	      0.14327151745576466000	      0.00062238122978212169	      0.07741462957283572200	      0.00066696526950837498	      0.07241809310220231900	      0.00000004785111888713	      0.14449879487804879000	      0.00000004785111888713	      0.14369835882979098000	      0.00000004785111888713	      0.08916931496092529700
      0.29131072000000008000	     -0.00357665228025650900	     17.61347545531892300000	      0.03588547630269698500	    113.33934713268499000000	      0.00002576688380070698	      0.14333063687669564000	      0.00060231756014945753	      0.07747480488658188600	      0.00064546434662777748	      0.07247809641294675200	      0.00000004630854498714	      0.14445262053776833000	      0.00000004630854498714	      0.14365035372653659000	      0.00000004630854498714	      0.08913435676823770700
      0.29393216000000005000	     -0.00347849954030911770	     17.91156407226020500000	      0.03894181109993182000	    114.08285609865177000000	      0.00002413237000447339	      0.14344952865022195000	      0.00056410974389225728	      0.07759579253618037500	      0.00060451952816621972	      0.07259874167800933800	      0.00000004337097767204	      0.14435926507803992000	      0.00000004337097767204	      0.14355325591692261000	      0.00000004337097767204	      0.08906418149647696300
      0.29917504000000006000	     -0.00325742024201512890	     18.51352385960959500000	      0.04577565018068965200	    115.53990338987136000000	      0.00002116781848778409	      0.14368980574280660000	      0.00049481143641043899	      0.07784027207861248000	      0.00053025706311362589	      0.07284253886126686200	      0.00000003804305100698	      0.14416927949599670000	      0.00000003804305100698	      0.14335485647109442000	      0.00000003804305100698	      0.08892225898867278700
      0.30000000000000010000	     -0.00321917211340735400	     18.60893257848827900000	      0.04699100688544269300	    115.76492304915787000000	      0.00002073572447035716	      0.14372798252142488000	      0.00048471095952139345	      0.07787904934857468900	      0.00051943304245216768	      0.07288121194338148500	      0.00000003726648658423	      0.14413823265158437000	      0.00000003726648658423	      0.14332298018645659000	      0.00000003726648658423	      0.08890015489901606500
      0.30524288000000011000	     -0.00294772851195590620	     19.21956983853236900000	      0.05213025441857092900	    117.18023244043172000000	      0.00001818843535549386	      0.14397240902840575000	      0.00042516643032932864	      0.07812734247772125400	      0.00045562306384108774	      0.07312883700157654700	      0.00000003268846878886	      0.14393885410699772000	      0.00000003268846878886	      0.14311746490699240000	      0.00000003268846878886	      0.08875975309878773900
      0.31000000000000011000	     -0.00269345784454228440	     19.78001020860203200000	      0.09758501281470015300	    118.31306121226424000000	      0.00001614899690494161	      0.14419633654037634000	      0.00037749323860336917	      0.07835536911511796500	      0.00040453482138403296	      0.07335626168385338300	      0.00000002902316614821	      0.14375896198767049000	      0.00000002902316614821	      0.14292571220838396000	      0.00000002902316614821	      0.08860219173373640200
